<svg width="22" height="20" viewBox="0 0 22 20" fill="none" xmlns="http://www.w3.org/2000/svg">
<path fill-rule="evenodd" clip-rule="evenodd" d="M9.00011 0C8.20446 0 7.4414 0.31607 6.87879 0.87868C6.31618 1.44129 6.00011 2.20435 6.00011 3V4H3.00011C1.34326 4 0.000110388 5.34315 0.000110388 7V11.9842C-3.69641e-05 11.9941 -3.67311e-05 12.004 0.000110388 12.0139V17C0.000110388 18.6569 1.34326 20 3.00011 20H19.0001C20.657 20 22.0001 18.6569 22.0001 17V12.014C22.0003 12.004 22.0003 11.9941 22.0001 11.9842V7C22.0001 5.34315 20.657 4 19.0001 4H16.0001V3C16.0001 2.20435 15.684 1.44129 15.1214 0.87868C14.5588 0.31607 13.7958 0 13.0001 0H9.00011ZM14.0001 4V3C14.0001 2.73478 13.8948 2.48043 13.7072 2.29289C13.5197 2.10536 13.2653 2 13.0001 2H9.00011C8.73489 2 8.48054 2.10536 8.293 2.29289C8.10547 2.48043 8.00011 2.73478 8.00011 3V4H14.0001ZM20.0001 11.452V7C20.0001 6.44772 19.5524 6 19.0001 6H15.0001H7.00011H3.00011C2.44783 6 2.00011 6.44772 2.00011 7V11.452C4.70271 13.1182 7.81822 14.0033 11.0001 14.0033C14.182 14.0033 17.2975 13.1182 20.0001 11.452ZM20.0001 13.7566C17.2377 15.2275 14.148 16.0033 11.0001 16.0033C7.85223 16.0033 4.76252 15.2275 2.00011 13.7566V17C2.00011 17.5523 2.44783 18 3.00011 18H19.0001C19.5524 18 20.0001 17.5523 20.0001 17V13.7566ZM11.0001 10C10.4478 10 10.0001 10.4477 10.0001 11C10.0001 11.5523 10.4478 12 11.0001 12H11.0101C11.5624 12 12.0101 11.5523 12.0101 11C12.0101 10.4477 11.5624 10 11.0101 10H11.0001Z" fill="#D61336"/>
</svg>
