<svg width="23" height="22" viewBox="0 0 23 22" fill="none" xmlns="http://www.w3.org/2000/svg">
<path fill-rule="evenodd" clip-rule="evenodd" d="M10.5594 2.37351C11.0011 2.13165 11.4966 2.00488 12.0002 2.00488C12.5038 2.00488 12.9993 2.13165 13.441 2.37351C13.8827 2.61536 14.2564 2.96452 14.5277 3.38879C14.7544 3.74339 15.1789 3.91807 15.5895 3.82574C16.0832 3.71476 16.5968 3.73042 17.0828 3.87128C17.5687 4.01213 18.0112 4.2736 18.3689 4.63136C18.7267 4.98912 18.9882 5.43155 19.129 5.91749C19.2699 6.40344 19.2855 6.91712 19.1745 7.41074C19.0822 7.82138 19.2569 8.24587 19.6115 8.4726C20.0358 8.74388 20.3849 9.1176 20.6268 9.55931C20.8686 10.001 20.9954 10.4965 20.9954 11.0001C20.9954 11.5037 20.8686 11.9992 20.6268 12.4409C20.3849 12.8826 20.0358 13.2563 19.6115 13.5276C19.2571 13.7542 19.0824 14.1784 19.1744 14.5889C19.2849 15.0817 19.2692 15.5945 19.1287 16.0797C18.9882 16.5649 18.7274 17.0067 18.3706 17.3643C18.0138 17.7218 17.5725 17.9835 17.0877 18.125C16.6028 18.2665 16.09 18.2833 15.5969 18.1739C15.1862 18.0827 14.7623 18.2584 14.5364 18.6134C14.2655 19.0393 13.8915 19.3899 13.449 19.6329C13.0066 19.8758 12.51 20.0032 12.0052 20.0032C11.5004 20.0032 11.0038 19.8758 10.5613 19.6329C10.1189 19.3899 9.74487 19.0393 9.47394 18.6134C9.2477 18.2577 8.82273 18.0821 8.41143 18.1743C7.91855 18.2848 7.40575 18.2691 6.92058 18.1286C6.43541 17.9881 5.99357 17.7273 5.63603 17.3705C5.27849 17.0137 5.01682 16.5724 4.87529 16.0876C4.73377 15.6027 4.71696 15.0899 4.82643 14.5968C4.9178 14.1852 4.74121 13.7606 4.38496 13.5351C3.95743 13.2645 3.60527 12.8902 3.36125 12.447C3.11722 12.0038 2.98926 11.5061 2.98926 11.0001C2.98926 10.4941 3.11722 9.99641 3.36125 9.55319C3.60527 9.10997 3.95743 8.73566 4.38496 8.4651C4.74121 8.23964 4.9178 7.81496 4.82643 7.40337C4.71696 6.91027 4.73377 6.39751 4.87529 5.91263C5.01682 5.42775 5.27849 4.98646 5.63603 4.62967C5.99357 4.27287 6.43541 4.01213 6.92058 3.87162C7.40575 3.73111 7.91855 3.71537 8.41143 3.82587C8.8219 3.9179 9.24608 3.7432 9.47269 3.38879C9.74397 2.96452 10.1177 2.61536 10.5594 2.37351ZM12.0002 0.00488281C11.1609 0.00488281 10.3351 0.216167 9.59888 0.619258C9.05964 0.914518 8.58119 1.30573 8.1861 1.77181C7.57488 1.71893 6.95717 1.77884 6.36422 1.95056C5.5556 2.18475 4.8192 2.61932 4.2233 3.21397C3.62739 3.80863 3.19129 4.54412 2.95541 5.35224C2.7826 5.94429 2.72135 6.56129 2.7727 7.17207C2.30237 7.56728 1.90738 8.04707 1.60924 8.58858C1.20253 9.32728 0.989258 10.1568 0.989258 11.0001C0.989258 11.8434 1.20253 12.6729 1.60924 13.4116C1.90738 13.9531 2.30237 14.4329 2.7727 14.8281C2.72136 15.4389 2.7826 16.0559 2.95541 16.6479C3.19129 17.4561 3.62739 18.1916 4.2233 18.7862C4.8192 19.3809 5.5556 19.8154 6.36422 20.0496C6.95668 20.2212 7.57386 20.2812 8.18459 20.2285C8.57965 20.6965 9.05861 21.0894 9.59879 21.386C10.3362 21.7909 11.1639 22.0032 12.0052 22.0032C12.8465 22.0032 13.6742 21.7909 14.4116 21.386C14.9522 21.0892 15.4315 20.6959 15.8267 20.2275C16.438 20.279 17.0555 20.2178 17.648 20.0449C18.4562 19.809 19.1917 19.3729 19.7863 18.777C20.381 18.1811 20.8155 17.4447 21.0497 16.6361C21.2215 16.0431 21.2814 15.4254 21.2285 14.8142C21.6946 14.4191 22.0858 13.9407 22.381 13.4014C22.7841 12.6652 22.9954 11.8394 22.9954 11.0001C22.9954 10.1608 22.7841 9.33497 22.381 8.59879C22.0858 8.05966 21.6947 7.5813 21.2288 7.18627C21.2821 6.57383 21.2222 5.95483 21.0499 5.3607C20.8152 4.55079 20.3794 3.81341 19.7831 3.21714C19.1869 2.62088 18.4495 2.1851 17.6396 1.95034C17.0455 1.77813 16.4265 1.7182 15.814 1.77151C15.419 1.30556 14.9406 0.914455 14.4015 0.619258C13.6653 0.216167 12.8395 0.00488281 12.0002 0.00488281ZM15.7071 9.70711C16.0976 9.31658 16.0976 8.68342 15.7071 8.29289C15.3166 7.90237 14.6834 7.90237 14.2929 8.29289L11 11.5858L9.70711 10.2929C9.31658 9.90237 8.68342 9.90237 8.29289 10.2929C7.90237 10.6834 7.90237 11.3166 8.29289 11.7071L10.2929 13.7071C10.6834 14.0976 11.3166 14.0976 11.7071 13.7071L15.7071 9.70711Z" fill="#D61336"/>
</svg>
