<svg width="10" height="10" viewBox="0 0 10 10" fill="none" xmlns="http://www.w3.org/2000/svg">
<path fill-rule="evenodd" clip-rule="evenodd" d="M9.49406 0.513832C9.80431 0.824082 9.80431 1.3271 9.49406 1.63735L6.12351 5.00789L9.49406 8.37843C9.80431 8.68868 9.80431 9.1917 9.49406 9.50195C9.18381 9.8122 8.68079 9.8122 8.37054 9.50195L5 6.1314L1.62946 9.50195C1.31921 9.8122 0.816193 9.8122 0.505943 9.50195C0.195694 9.1917 0.195693 8.68868 0.505943 8.37843L3.87649 5.00789L0.505943 1.63735C0.195693 1.3271 0.195694 0.824082 0.505943 0.513832C0.816193 0.203582 1.31921 0.203582 1.62946 0.513832L5 3.88437L8.37054 0.513832C8.68079 0.203582 9.18381 0.203582 9.49406 0.513832Z" fill="#202B39"/>
</svg>
