<svg width="208" height="41" viewBox="0 0 208 41" fill="none" xmlns="http://www.w3.org/2000/svg">
<g clip-path="url(#clip0_6762_868)">
<path d="M5.09278 29.3022C3.48453 28.4435 2.25154 27.2092 1.3402 25.7066C0.428865 24.1503 0 22.4331 0 20.5011C0 18.5692 0.482473 16.8519 1.39381 15.2956C2.30515 13.7393 3.53814 12.5587 5.14638 11.7001C6.75463 10.8414 8.5237 10.4121 10.5072 10.4121C12.1154 10.4121 13.5629 10.6804 14.9031 11.2708C16.2433 11.8074 17.369 12.666 18.2804 13.6857L15.9216 15.8859C14.5278 14.3297 12.7587 13.5783 10.668 13.5783C9.32782 13.5783 8.09483 13.8467 7.07628 14.437C6.00411 15.0273 5.19999 15.8323 4.55669 16.9056C3.967 17.9789 3.64535 19.1595 3.64535 20.4475C3.64535 21.7891 3.967 22.9697 4.55669 23.9893C5.14638 25.0626 6.00411 25.8676 7.07628 26.4579C8.14844 27.0482 9.32782 27.3166 10.668 27.3166C12.7587 27.3166 14.4742 26.5653 15.9216 25.009L18.2804 27.2629C17.369 28.3362 16.2433 29.1412 14.9031 29.6778C13.5629 30.2145 12.1154 30.5365 10.5072 30.5365C8.5237 30.5901 6.70102 30.1608 5.09278 29.3022Z" fill="#D61336"/>
<path d="M66.4193 11.5384C67.7059 12.075 68.6709 12.88 69.3142 13.9533C70.0111 15.0266 70.3327 16.2609 70.3327 17.7098C70.3327 19.1051 70.0111 20.3931 69.3142 21.4127C68.6173 22.486 67.6523 23.291 66.4193 23.8276C65.1327 24.3643 63.6853 24.6863 61.9699 24.6863H57.5204V30.3747H53.875V10.6797H61.9699C63.6853 10.6797 65.1864 11.0017 66.4193 11.5384ZM65.4544 20.5541C66.2585 19.8564 66.6874 18.9441 66.6874 17.6562C66.6874 16.4219 66.2585 15.4559 65.4544 14.7583C64.6503 14.0606 63.4173 13.7386 61.8626 13.7386H57.6276V21.52H61.8626C63.4173 21.5737 64.5967 21.2517 65.4544 20.5541Z" fill="#D61336"/>
<path d="M52.112 21.4121L45.8399 40.9998H38.7636L35.6007 30.5351L32.277 40.9998H25.1471L18.875 21.4121H25.6832L29.1142 32.5744L32.7059 21.4121H38.7636L42.1945 32.7354L45.7863 21.4121H52.112Z" fill="#D61336"/>
<path d="M45.8399 19.6414L42.2482 8.31806L38.8172 19.6414H32.7059L29.1142 8.47906L25.6832 19.6414H18.875L25.1471 0H32.2234L35.5471 10.4647L38.7636 0H45.8399L52.112 19.6414H45.8399Z" fill="#D61336"/>
<path d="M82.8889 19.8555C82.1384 19.4262 81.5487 18.8359 81.1199 18.1382C80.691 17.3869 80.4766 16.582 80.4766 15.6697C80.4766 14.7574 80.691 13.8987 81.1199 13.2011C81.5487 12.4498 82.1384 11.9131 82.9425 11.4838C83.693 11.0545 84.5508 10.8398 85.5157 10.8398C86.2662 10.8398 86.9095 10.9471 87.5528 11.2155C88.1961 11.4838 88.6786 11.8058 89.1075 12.3424L88.2497 13.2011C87.5528 12.4498 86.6415 12.0741 85.5693 12.0741C84.8724 12.0741 84.2291 12.2351 83.6394 12.5571C83.0497 12.8791 82.6209 13.3084 82.2992 13.8451C81.9776 14.3817 81.8168 15.0257 81.8168 15.7233C81.8168 16.421 81.9776 17.0113 82.2992 17.6016C82.6209 18.1382 83.0497 18.5676 83.6394 18.8896C84.2291 19.2115 84.8188 19.3725 85.5693 19.3725C86.6415 19.3725 87.4992 18.9969 88.2497 18.2456L89.1075 19.1042C88.6786 19.5872 88.1425 19.9629 87.5528 20.2312C86.9095 20.4995 86.2662 20.6068 85.5157 20.6068C84.4972 20.4995 83.6394 20.2848 82.8889 19.8555Z" fill="#333639"/>
<path d="M92.4816 19.8555C91.7311 19.4262 91.0878 18.8359 90.6589 18.1382C90.23 17.4406 90.0156 16.582 90.0156 15.6697C90.0156 14.7574 90.23 13.9524 90.6589 13.2011C91.0878 12.4498 91.6775 11.8594 92.4816 11.4838C93.2321 11.0545 94.0898 10.8398 95.0548 10.8398C96.0197 10.8398 96.8775 11.0545 97.628 11.4838C98.3785 11.9131 98.9682 12.5034 99.4506 13.2011C99.8795 13.9524 100.094 14.7574 100.094 15.6697C100.094 16.582 99.8795 17.4406 99.4506 18.1382C99.0218 18.8896 98.4321 19.4262 97.628 19.8555C96.8775 20.2848 96.0197 20.4995 95.0548 20.4995C94.0898 20.4995 93.2321 20.2848 92.4816 19.8555ZM96.9311 18.8359C97.4671 18.5139 97.896 18.0846 98.2177 17.5479C98.5393 17.0113 98.7001 16.3673 98.7001 15.6697C98.7001 14.972 98.5393 14.3817 98.2177 13.7914C97.896 13.2011 97.4671 12.8254 96.9311 12.5034C96.395 12.1814 95.7517 12.0204 95.0548 12.0204C94.3579 12.0204 93.7146 12.1814 93.1785 12.5034C92.5888 12.8254 92.1599 13.2547 91.8383 13.7914C91.5166 14.328 91.3558 14.972 91.3558 15.6697C91.3558 16.3673 91.5166 16.9576 91.8383 17.5479C92.1599 18.0846 92.5888 18.5139 93.1785 18.8359C93.7146 19.1579 94.3579 19.3189 95.0548 19.3189C95.7517 19.2652 96.3414 19.1579 96.9311 18.8359Z" fill="#333639"/>
<path d="M110.925 20.3913V13.4685L107.494 19.2107H106.85L103.419 13.5222V20.3913H102.133V10.8926H103.259L107.226 17.547L111.139 10.8926H112.265V20.3376H110.925V20.3913Z" fill="#333639"/>
<path d="M123.785 20.3913V13.4685L120.354 19.2107H119.711L116.333 13.5222V20.3913H115.047V10.8926H116.173L120.14 17.547L124.053 10.8926H125.179V20.3376H123.785V20.3913Z" fill="#333639"/>
<path d="M129.63 19.8555C128.879 19.4262 128.236 18.8359 127.807 18.1382C127.378 17.4406 127.164 16.582 127.164 15.6697C127.164 14.7574 127.378 13.9524 127.807 13.2011C128.236 12.4498 128.826 11.8594 129.63 11.4838C130.38 11.0545 131.238 10.8398 132.203 10.8398C133.168 10.8398 134.026 11.0545 134.776 11.4838C135.527 11.9131 136.117 12.5034 136.599 13.2011C137.028 13.9524 137.242 14.7574 137.242 15.6697C137.242 16.582 137.028 17.4406 136.599 18.1382C136.17 18.8896 135.58 19.4262 134.776 19.8555C134.026 20.2848 133.168 20.4995 132.203 20.4995C131.238 20.4995 130.38 20.2848 129.63 19.8555ZM134.079 18.8359C134.616 18.5139 135.044 18.0846 135.366 17.5479C135.688 17.0113 135.849 16.3673 135.849 15.6697C135.849 14.972 135.688 14.3817 135.366 13.7914C135.044 13.2547 134.616 12.8254 134.079 12.5034C133.543 12.1814 132.9 12.0204 132.203 12.0204C131.506 12.0204 130.863 12.1814 130.327 12.5034C129.737 12.8254 129.308 13.2547 128.987 13.7914C128.665 14.328 128.504 14.972 128.504 15.6697C128.504 16.3673 128.665 16.9576 128.987 17.5479C129.308 18.0846 129.737 18.5139 130.327 18.8359C130.863 19.1579 131.506 19.3189 132.203 19.3189C132.9 19.2652 133.543 19.1579 134.079 18.8359Z" fill="#333639"/>
<path d="M147.43 10.8926V20.3913H146.304L140.621 13.3075V20.3913H139.281V10.8926H140.407L146.09 17.9764V10.8926H147.43Z" fill="#333639"/>
<path d="M163.509 10.8926L160.346 20.3913H158.952L156.379 12.8245L153.806 20.3913H152.358L149.195 10.9463H150.589L153.162 18.6203L155.843 10.9463H157.076L159.702 18.674L162.329 10.9463H163.509V10.8926Z" fill="#333639"/>
<path d="M172.034 19.2107V20.3913H165.172V10.8926H171.873V12.0732H166.566V15.0248H171.283V16.1518H166.566V19.2107H172.034Z" fill="#333639"/>
<path d="M180.241 18.0311H175.201L174.183 20.3923H172.789L177.078 10.9473H178.418L182.707 20.3923H181.313L180.241 18.0311ZM179.812 16.9578L177.775 12.3426L175.738 16.9578H179.812Z" fill="#333639"/>
<path d="M184.148 10.8926H185.489V19.2107H190.635V20.3913H184.148V10.8926Z" fill="#333639"/>
<path d="M193.153 12.0732H189.883V10.8926H197.71V12.0732H194.493V20.3913H193.153V12.0732Z" fill="#333639"/>
<path d="M207.36 10.8926V20.3913H206.02V16.1518H200.606V20.3913H199.266V10.8926H200.606V14.9711H206.02V10.8926H207.36Z" fill="#333639"/>
<path d="M85.3503 23.7195C85.8328 23.9342 86.1545 24.2025 86.4225 24.6318C86.6905 25.0075 86.7977 25.4905 86.7977 25.9734C86.7977 26.5101 86.6905 26.9394 86.4225 27.3151C86.1545 27.6907 85.8328 28.0127 85.3503 28.2274C84.8679 28.442 84.3318 28.5494 83.7421 28.5494H82.2947V30.4813H80.6328V23.4512H83.6885C84.3318 23.4512 84.8679 23.5048 85.3503 23.7195ZM84.707 26.8857C84.9751 26.6711 85.0823 26.3491 85.0823 25.9734C85.0823 25.5978 84.9751 25.2758 84.707 25.0611C84.439 24.8465 84.0637 24.7391 83.5813 24.7391H82.2411V27.2077H83.5813C84.1173 27.2077 84.4926 27.1004 84.707 26.8857Z" fill="#333639"/>
<path d="M97.4111 28.9776H94.141L93.4977 30.4802H91.8359L94.9988 23.3965H96.607L99.7699 30.4802H98.0544L97.4111 28.9776ZM96.9287 27.7433L95.8029 25.0064L94.6771 27.7433H96.9287Z" fill="#333639"/>
<path d="M110.229 30.535L108.888 28.5494H108.781H107.334V30.535H105.672V23.4512H108.728C109.371 23.4512 109.907 23.5585 110.336 23.7732C110.818 23.9878 111.14 24.2562 111.408 24.6855C111.676 25.0611 111.783 25.5441 111.783 26.0271C111.783 26.5637 111.676 26.9931 111.408 27.3687C111.14 27.7444 110.818 28.0664 110.336 28.2274L111.944 30.4813H110.229V30.535ZM109.8 25.0611C109.532 24.8465 109.156 24.7391 108.674 24.7391H107.334V27.2077H108.674C109.156 27.2077 109.532 27.1004 109.8 26.8857C110.068 26.6711 110.175 26.3491 110.175 25.9734C110.175 25.5978 110.068 25.2758 109.8 25.0611Z" fill="#333639"/>
<path d="M119.658 24.7381H117.406V23.3965H123.571V24.7381H121.32V30.4802H119.658V24.7381Z" fill="#333639"/>
<path d="M136.166 23.4512V30.535H134.826L131.288 26.2418V30.535H129.68V23.4512H131.02L134.558 27.7444V23.4512H136.166Z" fill="#333639"/>
<path d="M148.499 29.1933V30.535H143.031V23.4512H148.392V24.7928H144.693V26.2954H147.963V27.5834H144.693V29.247H148.499V29.1933Z" fill="#333639"/>
<path d="M159.493 30.535L158.153 28.5494H158.046H156.598V30.535H154.938V23.4512H157.992C158.636 23.4512 159.173 23.5585 159.602 23.7732C160.084 23.9878 160.405 24.2562 160.673 24.6855C160.941 25.0611 161.048 25.5441 161.048 26.0271C161.048 26.5637 160.941 26.9931 160.673 27.3687C160.405 27.7444 160.084 28.0664 159.602 28.2274L161.209 30.4813H159.493V30.535ZM159.064 25.0611C158.796 24.8465 158.421 24.7391 157.939 24.7391H156.598V27.2077H157.939C158.421 27.2077 158.796 27.1004 159.064 26.8857C159.332 26.6711 159.44 26.3491 159.44 25.9734C159.493 25.5978 159.332 25.2758 159.064 25.0611Z" fill="#333639"/>
<path d="M168.287 30.4276C167.751 30.2666 167.322 30.0519 167 29.8372L167.536 28.603C167.858 28.8177 168.179 28.9787 168.608 29.1397C169.037 29.3006 169.466 29.3542 169.841 29.3542C170.324 29.3542 170.645 29.3006 170.86 29.1397C171.074 28.9787 171.181 28.8177 171.181 28.603C171.181 28.442 171.128 28.281 170.967 28.1737C170.86 28.0664 170.645 27.9589 170.485 27.9053C170.27 27.8516 170.002 27.7444 169.627 27.6907C169.091 27.5834 168.662 27.4224 168.287 27.315C167.965 27.2077 167.643 26.9931 167.375 26.6711C167.107 26.4027 167 26.0271 167 25.5441C167 25.1148 167.107 24.7391 167.322 24.4171C167.536 24.0951 167.858 23.8268 168.34 23.6122C168.769 23.3975 169.359 23.3438 170.002 23.3438C170.431 23.3438 170.913 23.3975 171.342 23.5048C171.771 23.6122 172.146 23.7732 172.468 23.9878L171.986 25.222C171.342 24.8464 170.699 24.6854 170.002 24.6854C169.52 24.6854 169.198 24.7391 168.984 24.9001C168.769 25.0611 168.662 25.2221 168.662 25.4904C168.662 25.7588 168.769 25.9198 169.037 26.0271C169.305 26.1344 169.68 26.2417 170.217 26.4027C170.753 26.5101 171.181 26.6711 171.557 26.7784C171.878 26.8857 172.2 27.1004 172.468 27.3687C172.736 27.637 172.843 28.0127 172.843 28.4957C172.843 28.925 172.736 29.247 172.522 29.6226C172.307 29.9446 171.932 30.213 171.503 30.4276C171.074 30.6423 170.485 30.6959 169.841 30.6959C169.359 30.6423 168.823 30.5886 168.287 30.4276Z" fill="#333639"/>
<path d="M185.759 23.4512V30.535H184.097V27.637H180.881V30.535H179.219V23.4512H180.881V26.2418H184.097V23.4512H185.759Z" fill="#333639"/>
<path d="M192.617 23.4512H194.279V30.535H192.617V23.4512Z" fill="#333639"/>
<path d="M205.803 23.7195C206.286 23.9342 206.607 24.2025 206.876 24.6318C207.144 25.0075 207.251 25.4905 207.251 25.9734C207.251 26.5101 207.144 26.9394 206.876 27.3151C206.607 27.6907 206.286 28.0127 205.803 28.2274C205.321 28.442 204.785 28.5494 204.195 28.5494H202.748V30.4813H201.086V23.4512H204.142C204.785 23.4512 205.321 23.5048 205.803 23.7195ZM205.214 26.8857C205.482 26.6711 205.589 26.3491 205.589 25.9734C205.589 25.5978 205.482 25.2758 205.214 25.0611C204.946 24.8465 204.57 24.7391 204.088 24.7391H202.748V27.2077H204.088C204.57 27.2077 204.946 27.1004 205.214 26.8857Z" fill="#333639"/>
</g>
<defs>
<clipPath id="clip0_6762_868">
<rect width="208" height="41" fill="white"/>
</clipPath>
</defs>
</svg>
