<svg width="208" height="41" viewBox="0 0 208 41" fill="none" xmlns="http://www.w3.org/2000/svg">
<path d="M5.09278 29.3014C3.48453 28.4428 2.25154 27.2085 1.3402 25.7059C0.428865 24.1496 0 22.4323 0 20.5004C0 18.5684 0.482473 16.8512 1.39381 15.2949C2.30515 13.7386 3.53814 12.558 5.14638 11.6993C6.75463 10.8407 8.5237 10.4114 10.5072 10.4114C12.1154 10.4114 13.5629 10.6797 14.9031 11.27C16.2433 11.8067 17.369 12.6653 18.2804 13.6849L15.9216 15.8852C14.5278 14.3289 12.7587 13.5776 10.668 13.5776C9.32782 13.5776 8.09483 13.8459 7.07628 14.4362C6.00411 15.0266 5.19999 15.8315 4.55669 16.9048C3.967 17.9781 3.64535 19.1588 3.64535 20.4467C3.64535 21.7883 3.967 22.969 4.55669 23.9886C5.14638 25.0619 6.00411 25.8669 7.07628 26.4572C8.14844 27.0475 9.32782 27.3158 10.668 27.3158C12.7587 27.3158 14.4742 26.5645 15.9216 25.0082L18.2804 27.2622C17.369 28.3355 16.2433 29.1404 14.9031 29.6771C13.5629 30.2137 12.1154 30.5357 10.5072 30.5357C8.5237 30.5894 6.70102 30.1601 5.09278 29.3014Z" fill="white"/>
<path d="M66.4222 11.538C67.7088 12.0746 68.6738 12.8796 69.3171 13.9529C70.014 15.0262 70.3356 16.2605 70.3356 17.7094C70.3356 19.1047 70.014 20.3927 69.3171 21.4123C68.6202 22.4856 67.6552 23.2906 66.4222 23.8272C65.1356 24.3639 63.6882 24.6859 61.9728 24.6859H57.5233V30.3743H53.8779V10.6793H61.9728C63.6882 10.6793 65.1893 11.0013 66.4222 11.538ZM65.4573 20.5537C66.2614 19.856 66.6903 18.9437 66.6903 17.6558C66.6903 16.4215 66.2614 15.4555 65.4573 14.7579C64.6532 14.0602 63.4202 13.7382 61.8655 13.7382H57.6305V21.5196H61.8655C63.4202 21.5733 64.5996 21.2513 65.4573 20.5537Z" fill="white"/>
<path d="M52.1077 21.4121L45.8355 40.9998H38.7592L35.5963 30.5351L32.2726 40.9998H25.1428L18.8706 21.4121H25.6788L29.1098 32.5744L32.7015 21.4121H38.7592L42.1902 32.7354L45.7819 21.4121H52.1077Z" fill="white"/>
<path d="M45.8355 19.6414L42.2438 8.31806L38.8128 19.6414H32.7015L29.1098 8.47906L25.6788 19.6414H18.8706L25.1428 0H32.219L35.5427 10.4647L38.7592 0H45.8355L52.1077 19.6414H45.8355Z" fill="white"/>
<path d="M82.885 19.8551C82.1345 19.4257 81.5448 18.8354 81.116 18.1378C80.6871 17.3865 80.4727 16.5815 80.4727 15.6692C80.4727 14.7569 80.6871 13.8983 81.116 13.2006C81.5448 12.4493 82.1345 11.9127 82.9386 11.4833C83.6891 11.054 84.5469 10.8394 85.5118 10.8394C86.2623 10.8394 86.9056 10.9467 87.5489 11.215C88.1922 11.4833 88.6747 11.8053 89.1036 12.342L88.2458 13.2006C87.5489 12.4493 86.6376 12.0736 85.5654 12.0736C84.8685 12.0736 84.2252 12.2346 83.6355 12.5566C83.0458 12.8786 82.617 13.3079 82.2953 13.8446C81.9737 14.3812 81.8129 15.0252 81.8129 15.7229C81.8129 16.4205 81.9737 17.0108 82.2953 17.6011C82.617 18.1378 83.0458 18.5671 83.6355 18.8891C84.2252 19.2111 84.8149 19.3721 85.5654 19.3721C86.6376 19.3721 87.4953 18.9964 88.2458 18.2451L89.1036 19.1038C88.6747 19.5867 88.1386 19.9624 87.5489 20.2307C86.9056 20.499 86.2623 20.6064 85.5118 20.6064C84.4933 20.499 83.6355 20.2844 82.885 19.8551Z" fill="white"/>
<path d="M92.4826 19.8551C91.7321 19.4257 91.0888 18.8354 90.6599 18.1378C90.231 17.4401 90.0166 16.5815 90.0166 15.6692C90.0166 14.7569 90.231 13.9519 90.6599 13.2006C91.0888 12.4493 91.6785 11.859 92.4826 11.4833C93.2331 11.054 94.0908 10.8394 95.0558 10.8394C96.0207 10.8394 96.8785 11.054 97.629 11.4833C98.3795 11.9127 98.9692 12.503 99.4516 13.2006C99.8805 13.9519 100.095 14.7569 100.095 15.6692C100.095 16.5815 99.8805 17.4401 99.4516 18.1378C99.0228 18.8891 98.4331 19.4257 97.629 19.8551C96.8785 20.2844 96.0207 20.499 95.0558 20.499C94.0908 20.499 93.2331 20.2844 92.4826 19.8551ZM96.9321 18.8354C97.4681 18.5134 97.897 18.0841 98.2187 17.5475C98.5403 17.0108 98.7011 16.3668 98.7011 15.6692C98.7011 14.9716 98.5403 14.3812 98.2187 13.7909C97.897 13.2006 97.4681 12.825 96.9321 12.503C96.396 12.181 95.7527 12.02 95.0558 12.02C94.3589 12.02 93.7156 12.181 93.1795 12.503C92.5898 12.825 92.1609 13.2543 91.8393 13.7909C91.5176 14.3276 91.3568 14.9716 91.3568 15.6692C91.3568 16.3668 91.5176 16.9572 91.8393 17.5475C92.1609 18.0841 92.5898 18.5134 93.1795 18.8354C93.7156 19.1574 94.3589 19.3184 95.0558 19.3184C95.7527 19.2647 96.3424 19.1574 96.9321 18.8354Z" fill="white"/>
<path d="M110.921 20.3918V13.469L107.49 19.2111H106.847L103.416 13.5226V20.3918H102.129V10.8931H103.255L107.222 17.5475L111.136 10.8931H112.261V20.3381H110.921V20.3918Z" fill="white"/>
<path d="M123.787 20.3918V13.469L120.356 19.2111H119.713L116.335 13.5226V20.3918H115.049V10.8931H116.175L120.142 17.5475L124.055 10.8931H125.181V20.3381H123.787V20.3918Z" fill="white"/>
<path d="M129.633 19.8551C128.883 19.4257 128.24 18.8354 127.811 18.1378C127.382 17.4401 127.167 16.5815 127.167 15.6692C127.167 14.7569 127.382 13.9519 127.811 13.2006C128.24 12.4493 128.829 11.859 129.633 11.4833C130.384 11.054 131.242 10.8394 132.207 10.8394C133.172 10.8394 134.029 11.054 134.78 11.4833C135.53 11.9127 136.12 12.503 136.603 13.2006C137.031 13.9519 137.246 14.7569 137.246 15.6692C137.246 16.5815 137.031 17.4401 136.603 18.1378C136.174 18.8891 135.584 19.4257 134.78 19.8551C134.029 20.2844 133.172 20.499 132.207 20.499C131.242 20.499 130.384 20.2844 129.633 19.8551ZM134.083 18.8354C134.619 18.5134 135.048 18.0841 135.37 17.5475C135.691 17.0108 135.852 16.3668 135.852 15.6692C135.852 14.9716 135.691 14.3812 135.37 13.7909C135.048 13.2543 134.619 12.825 134.083 12.503C133.547 12.181 132.904 12.02 132.207 12.02C131.51 12.02 130.866 12.181 130.33 12.503C129.741 12.825 129.312 13.2543 128.99 13.7909C128.669 14.3276 128.508 14.9716 128.508 15.6692C128.508 16.3668 128.669 16.9572 128.99 17.5475C129.312 18.0841 129.741 18.5134 130.33 18.8354C130.866 19.1574 131.51 19.3184 132.207 19.3184C132.904 19.2647 133.547 19.1574 134.083 18.8354Z" fill="white"/>
<path d="M147.429 10.8931V20.3918H146.303L140.62 13.308V20.3918H139.28V10.8931H140.406L146.089 17.9768V10.8931H147.429Z" fill="white"/>
<path d="M163.511 10.8931L160.348 20.3918H158.954L156.381 12.825L153.808 20.3918H152.361L149.198 10.9467H150.592L153.165 18.6208L155.845 10.9467H157.078L159.705 18.6745L162.332 10.9467H163.511V10.8931Z" fill="white"/>
<path d="M172.034 19.2111V20.3918H165.172V10.8931H171.873V12.0737H166.566V15.0253H171.283V16.1522H166.566V19.2111H172.034Z" fill="white"/>
<path d="M180.24 18.0307H175.201L174.182 20.3919H172.789L177.077 10.9469H178.417L182.706 20.3919H181.312L180.24 18.0307ZM179.811 16.9574L177.774 12.3422L175.737 16.9574H179.811Z" fill="white"/>
<path d="M184.148 10.8931H185.488V19.2111H190.635V20.3918H184.148V10.8931Z" fill="white"/>
<path d="M193.154 12.0737H189.884V10.8931H197.711V12.0737H194.494V20.3918H193.154V12.0737Z" fill="white"/>
<path d="M207.362 10.8931V20.3918H206.022V16.1522H200.608V20.3918H199.268V10.8931H200.608V14.9716H206.022V10.8931H207.362Z" fill="white"/>
<path d="M85.3503 23.719C85.8328 23.9337 86.1545 24.202 86.4225 24.6313C86.6905 25.007 86.7977 25.49 86.7977 25.9729C86.7977 26.5096 86.6905 26.9389 86.4225 27.3146C86.1545 27.6902 85.8328 28.0122 85.3503 28.2269C84.8679 28.4415 84.3318 28.5489 83.7421 28.5489H82.2947V30.4808H80.6328V23.4507H83.6885C84.3318 23.4507 84.8679 23.5043 85.3503 23.719ZM84.707 26.8852C84.9751 26.6706 85.0823 26.3486 85.0823 25.9729C85.0823 25.5973 84.9751 25.2753 84.707 25.0606C84.439 24.846 84.0637 24.7386 83.5813 24.7386H82.2411V27.2072H83.5813C84.1173 27.2072 84.4926 27.0999 84.707 26.8852Z" fill="white"/>
<path d="M97.4131 28.978H94.143L93.4997 30.4806H91.8379L95.0008 23.3969H96.609L99.7719 30.4806H98.0564L97.4131 28.978ZM96.9307 27.7437L95.8049 25.0068L94.6791 27.7437H96.9307Z" fill="white"/>
<path d="M110.228 30.5345L108.887 28.5489H108.78H107.333V30.5345H105.671V23.4507H108.727C109.37 23.4507 109.906 23.558 110.335 23.7727C110.817 23.9873 111.139 24.2557 111.407 24.685C111.675 25.0606 111.782 25.5436 111.782 26.0266C111.782 26.5632 111.675 26.9926 111.407 27.3682C111.139 27.7439 110.817 28.0659 110.335 28.2269L111.943 30.4808H110.228V30.5345ZM109.799 25.0606C109.531 24.846 109.155 24.7386 108.673 24.7386H107.333V27.2072H108.673C109.155 27.2072 109.531 27.0999 109.799 26.8852C110.067 26.6706 110.174 26.3486 110.174 25.9729C110.174 25.5973 110.067 25.2753 109.799 25.0606Z" fill="white"/>
<path d="M119.661 24.7385H117.41V23.3969H123.575V24.7385H121.323V30.4806H119.661V24.7385Z" fill="white"/>
<path d="M136.169 23.4507V30.5345H134.829L131.291 26.2413V30.5345H129.683V23.4507H131.023L134.561 27.7439V23.4507H136.169Z" fill="white"/>
<path d="M148.503 29.1928V30.5345H143.035V23.4507H148.395V24.7923H144.697V26.2949H147.967V27.5829H144.697V29.2465H148.503V29.1928Z" fill="white"/>
<path d="M159.491 30.5345L158.151 28.5489H158.043H156.596V30.5345H154.934V23.4507H157.99C158.633 23.4507 159.169 23.558 159.598 23.7727C160.08 23.9873 160.402 24.2557 160.67 24.685C160.938 25.0606 161.045 25.5436 161.045 26.0266C161.045 26.5632 160.938 26.9926 160.67 27.3682C160.402 27.7439 160.08 28.0659 159.598 28.2269L161.206 30.4808H159.491V30.5345ZM159.062 25.0606C158.794 24.846 158.419 24.7386 157.936 24.7386H156.596V27.2072H157.936C158.419 27.2072 158.794 27.0999 159.062 26.8852C159.33 26.6706 159.437 26.3486 159.437 25.9729C159.491 25.5973 159.33 25.2753 159.062 25.0606Z" fill="white"/>
<path d="M168.286 30.4269C167.75 30.2659 167.321 30.0513 166.999 29.8366L167.535 28.6023C167.857 28.817 168.178 28.978 168.607 29.139C169.036 29.2999 169.465 29.3536 169.84 29.3536C170.323 29.3536 170.644 29.2999 170.859 29.139C171.073 28.978 171.18 28.817 171.18 28.6023C171.18 28.4413 171.127 28.2803 170.966 28.173C170.859 28.0657 170.644 27.9583 170.484 27.9047C170.269 27.851 170.001 27.7437 169.626 27.69C169.09 27.5827 168.661 27.4217 168.286 27.3143C167.964 27.207 167.642 26.9924 167.374 26.6704C167.106 26.402 166.999 26.0264 166.999 25.5434C166.999 25.1141 167.106 24.7384 167.321 24.4164C167.535 24.0944 167.857 23.8261 168.339 23.6115C168.768 23.3968 169.358 23.3431 170.001 23.3431C170.43 23.3431 170.912 23.3968 171.341 23.5041C171.77 23.6115 172.145 23.7725 172.467 23.9871L171.985 25.2214C171.341 24.8458 170.698 24.6848 170.001 24.6848C169.519 24.6848 169.197 24.7384 168.983 24.8994C168.768 25.0604 168.661 25.2214 168.661 25.4897C168.661 25.7581 168.768 25.9191 169.036 26.0264C169.304 26.1337 169.679 26.241 170.216 26.402C170.752 26.5094 171.18 26.6704 171.556 26.7777C171.877 26.885 172.199 27.0997 172.467 27.368C172.735 27.6363 172.842 28.012 172.842 28.495C172.842 28.9243 172.735 29.2463 172.521 29.6219C172.306 29.9439 171.931 30.2123 171.502 30.4269C171.073 30.6416 170.484 30.6952 169.84 30.6952C169.358 30.6416 168.822 30.5879 168.286 30.4269Z" fill="white"/>
<path d="M185.759 23.4507V30.5345H184.097V27.6365H180.881V30.5345H179.219V23.4507H180.881V26.2413H184.097V23.4507H185.759Z" fill="white"/>
<path d="M192.618 23.4507H194.28V30.5345H192.618V23.4507Z" fill="white"/>
<path d="M205.806 23.719C206.289 23.9337 206.61 24.202 206.879 24.6313C207.147 25.007 207.254 25.49 207.254 25.9729C207.254 26.5096 207.147 26.9389 206.879 27.3146C206.61 27.6902 206.289 28.0122 205.806 28.2269C205.324 28.4415 204.788 28.5489 204.198 28.5489H202.751V30.4808H201.089V23.4507H204.145C204.788 23.4507 205.324 23.5043 205.806 23.719ZM205.217 26.8852C205.485 26.6706 205.592 26.3486 205.592 25.9729C205.592 25.5973 205.485 25.2753 205.217 25.0606C204.949 24.846 204.573 24.7386 204.091 24.7386H202.751V27.2072H204.091C204.573 27.2072 204.949 27.0999 205.217 26.8852Z" fill="white"/>
</svg>
