<svg width="18" height="18" viewBox="0 0 18 18" fill="none" xmlns="http://www.w3.org/2000/svg">
<path fill-rule="evenodd" clip-rule="evenodd" d="M3.1665 2.33341C2.70627 2.33341 2.33317 2.70651 2.33317 3.16675V11.5001C2.33317 11.9603 2.70627 12.3334 3.1665 12.3334H14.8332C15.2934 12.3334 15.6665 11.9603 15.6665 11.5001V3.16675C15.6665 2.70651 15.2934 2.33341 14.8332 2.33341H3.1665ZM0.666504 3.16675C0.666504 1.78604 1.78579 0.666748 3.1665 0.666748H14.8332C16.2139 0.666748 17.3332 1.78604 17.3332 3.16675V11.5001C17.3332 12.8808 16.2139 14.0001 14.8332 14.0001H3.1665C1.78579 14.0001 0.666504 12.8808 0.666504 11.5001V3.16675ZM1.5 16.5001C1.5 16.0398 1.8731 15.6667 2.33333 15.6667H3.16667C3.6269 15.6667 4 16.0398 4 16.5001C4 16.9603 3.6269 17.3334 3.16667 17.3334H2.33333C1.8731 17.3334 1.5 16.9603 1.5 16.5001ZM6.49984 15.6667C6.0396 15.6667 5.6665 16.0398 5.6665 16.5001C5.6665 16.9603 6.0396 17.3334 6.49984 17.3334H7.33317C7.79341 17.3334 8.1665 16.9603 8.1665 16.5001C8.1665 16.0398 7.79341 15.6667 7.33317 15.6667H6.49984ZM9.83301 16.5001C9.83301 16.0398 10.2061 15.6667 10.6663 15.6667H11.4997C11.9599 15.6667 12.333 16.0398 12.333 16.5001C12.333 16.9603 11.9599 17.3334 11.4997 17.3334H10.6663C10.2061 17.3334 9.83301 16.9603 9.83301 16.5001ZM14.8333 15.6667C14.3731 15.6667 14 16.0398 14 16.5001C14 16.9603 14.3731 17.3334 14.8333 17.3334H15.6667C16.1269 17.3334 16.5 16.9603 16.5 16.5001C16.5 16.0398 16.1269 15.6667 15.6667 15.6667H14.8333Z" fill="white"/>
</svg>
