<svg width="20" height="18" viewBox="0 0 20 18" fill="none" xmlns="http://www.w3.org/2000/svg">
<path fill-rule="evenodd" clip-rule="evenodd" d="M0.833496 2.33341C0.833496 1.41294 1.57969 0.666748 2.50016 0.666748H17.5002C18.4206 0.666748 19.1668 1.41294 19.1668 2.33341V4.83342C19.1668 5.75389 18.4206 6.50008 17.5002 6.50008H17.5V14.8333C17.5 15.4963 17.2366 16.1322 16.7678 16.601C16.2989 17.0699 15.663 17.3333 15 17.3333H13.3333C12.8731 17.3333 12.5 16.9602 12.5 16.4999C12.5 16.0397 12.8731 15.6666 13.3333 15.6666H15C15.221 15.6666 15.433 15.5788 15.5893 15.4225C15.7455 15.2662 15.8333 15.0543 15.8333 14.8333V6.50008H4.16667V14.8333C4.16667 15.0543 4.25446 15.2662 4.41074 15.4225C4.56702 15.5788 4.77899 15.6666 5 15.6666H6.66667C7.1269 15.6666 7.5 16.0397 7.5 16.4999C7.5 16.9602 7.1269 17.3333 6.66667 17.3333H5C4.33696 17.3333 3.70107 17.0699 3.23223 16.601C2.76339 16.1322 2.5 15.4963 2.5 14.8333V6.50008C1.5796 6.49999 0.833496 5.75384 0.833496 4.83342V2.33341ZM16.6833 4.83342L16.6667 4.83325L16.65 4.83342H3.34999L3.33333 4.83325L3.31668 4.83342H2.50016V2.33341H17.5002V4.83342H16.6833ZM10.3188 8.22998C10.4171 8.27065 10.5092 8.33093 10.5891 8.41083L13.0891 10.9108C13.4145 11.2363 13.4145 11.7639 13.0891 12.0893C12.7637 12.4148 12.236 12.4148 11.9106 12.0893L10.8332 11.0119V16.5001C10.8332 16.9603 10.4601 17.3334 9.99984 17.3334C9.5396 17.3334 9.1665 16.9603 9.1665 16.5001V11.0119L8.08909 12.0893C7.76366 12.4148 7.23602 12.4148 6.91058 12.0893C6.58514 11.7639 6.58514 11.2363 6.91058 10.9108L9.41058 8.41083C9.57266 8.24874 9.7849 8.16739 9.99734 8.16675C9.99817 8.16675 9.999 8.16675 9.99984 8.16675C10.0007 8.16675 10.0015 8.16675 10.0023 8.16675C10.1144 8.16708 10.2213 8.18954 10.3188 8.22998Z" fill="white"/>
</svg>
