<svg width="13" height="20" viewBox="0 0 13 20" fill="none" xmlns="http://www.w3.org/2000/svg">
<path fill-rule="evenodd" clip-rule="evenodd" d="M6.99967 0.833496C6.55765 0.833496 6.13372 1.00909 5.82116 1.32165C5.70793 1.43488 5.61268 1.56273 5.53723 1.70075C4.22148 1.84344 2.9862 2.43064 2.04155 3.37529C0.94759 4.46925 0.333008 5.95298 0.333008 7.50008V10.8333V16.6667C0.333008 17.127 0.706104 17.5001 1.16634 17.5001C1.62658 17.5001 1.99967 17.127 1.99967 16.6667V11.6667H3.6665V15.0001V16.6667C3.6665 17.3298 3.9299 17.9657 4.39874 18.4345C4.86758 18.9034 5.50346 19.1667 6.1665 19.1667H9.49984C10.1629 19.1667 10.7988 18.9034 11.2676 18.4345C11.7364 17.9657 11.9998 17.3298 11.9998 16.6667V15.0001V8.33342C11.9998 7.22835 11.5609 6.16854 10.7794 5.38714C10.6392 5.24685 10.4899 5.11759 10.333 4.99994V3.33341H11.9998C12.4601 3.33341 12.8332 2.96032 12.8332 2.50008C12.8332 2.03984 12.4601 1.66675 11.9998 1.66675H10.1097C10.0375 1.5417 9.94873 1.42553 9.84485 1.32165C9.53229 1.00909 9.10837 0.833496 8.66634 0.833496H6.99967ZM8.66634 4.25088V2.50016L6.99967 2.50016V4.25095C7.27197 4.19535 7.5511 4.16675 7.83317 4.16675C8.11513 4.16675 8.39415 4.19533 8.66634 4.25088ZM5.33301 5.00018V3.41758C4.53847 3.57978 3.80205 3.97182 3.22006 4.5538C2.43866 5.33521 1.99967 6.39501 1.99967 7.50008V10H3.6665V8.33342C3.6665 7.22835 4.10549 6.16854 4.88689 5.38714C5.02708 5.24694 5.17624 5.11777 5.33301 5.00018ZM10.3332 14.1667V8.33342C10.3332 7.67037 10.0698 7.03449 9.60094 6.56565C9.1321 6.09681 8.49621 5.83342 7.83317 5.83342C7.17013 5.83342 6.53424 6.09681 6.0654 6.56565C5.59656 7.03449 5.33317 7.67037 5.33317 8.33342V14.1667H10.3332ZM5.33317 15.8334H10.3332V16.6667C10.3332 16.8878 10.2454 17.0997 10.0891 17.256C9.93281 17.4123 9.72085 17.5001 9.49984 17.5001H6.1665C5.94549 17.5001 5.73353 17.4123 5.57725 17.256C5.42097 17.0997 5.33317 16.8878 5.33317 16.6667V15.8334Z" fill="white"/>
</svg>
