<svg width="14" height="18" viewBox="0 0 14 18" fill="none" xmlns="http://www.w3.org/2000/svg">
<path fill-rule="evenodd" clip-rule="evenodd" d="M7.17881 0.973835C7.36655 1.03757 7.5061 1.19653 7.54498 1.39095C7.93497 3.34089 9.11178 5.22769 10.6806 6.48275C12.4471 7.89592 13.3891 9.62735 13.3891 11.4999C13.3891 12.3389 13.2239 13.1697 12.9028 13.9448C12.5817 14.72 12.1111 15.4243 11.5178 16.0175C10.9246 16.6108 10.2203 17.0814 9.44514 17.4025C8.67 17.7235 7.83922 17.8888 7.00022 17.8888C6.16122 17.8888 5.33043 17.7235 4.55529 17.4025C3.78016 17.0814 3.07585 16.6108 2.48259 16.0175C1.88933 15.4243 1.41872 14.72 1.09765 13.9448C0.776581 13.1697 0.611328 12.3389 0.611328 11.4999C0.611328 10.4166 1.01282 9.34214 1.56706 8.65203C1.71468 8.46822 1.96223 8.39759 2.18461 8.47584C2.40699 8.55408 2.55577 8.76416 2.55577 8.9999C2.55577 9.40509 2.71673 9.79369 3.00325 10.0802C3.28976 10.3667 3.67836 10.5277 4.08355 10.5277C4.48874 10.5277 4.87734 10.3667 5.16385 10.0802C5.45037 9.79369 5.61133 9.40509 5.61133 8.9999C5.61133 8.20904 5.4022 7.81781 5.08559 7.22549C5.00851 7.08129 4.92505 6.92516 4.83669 6.74845C4.32649 5.72852 4.26275 4.72631 4.61417 3.75016C4.95627 2.7999 5.67442 1.92177 6.63438 1.0818C6.78359 0.951244 6.99107 0.910098 7.17881 0.973835ZM5.6596 4.12652C5.41768 4.79849 5.44727 5.48545 5.83041 6.25136L5.83045 6.25145C5.89651 6.38357 5.9664 6.51281 6.03681 6.64303C6.37359 7.26586 6.72244 7.911 6.72244 8.9999C6.72244 9.69978 6.44441 10.371 5.94953 10.8659C5.45464 11.3608 4.78343 11.6388 4.08355 11.6388C3.38367 11.6388 2.71246 11.3608 2.21757 10.8659C2.09034 10.7386 1.97744 10.5998 1.87992 10.4517C1.78153 10.7816 1.72244 11.1397 1.72244 11.4999C1.72244 12.193 1.85895 12.8793 2.12419 13.5196C2.38942 14.1599 2.77818 14.7418 3.26826 15.2319C3.75835 15.7219 4.34017 16.1107 4.9805 16.3759C5.62083 16.6412 6.30713 16.7777 7.00022 16.7777C7.6933 16.7777 8.37961 16.6412 9.01993 16.3759C9.66026 16.1107 10.2421 15.7219 10.7322 15.2319C11.2223 14.7418 11.611 14.1599 11.8762 13.5196C12.1415 12.8793 12.278 12.193 12.278 11.4999C12.278 10.0391 11.5534 8.60388 9.9865 7.35038C8.47542 6.14152 7.28799 4.41812 6.69963 2.55581C6.18529 3.10109 5.84125 3.62193 5.6596 4.12652Z" fill="white"/>
</svg>
