<svg width="14" height="18" viewBox="0 0 14 18" fill="none" xmlns="http://www.w3.org/2000/svg">
<path fill-rule="evenodd" clip-rule="evenodd" d="M13.667 16.4999C13.667 16.9602 13.2939 17.3333 12.8337 17.3333L1.16699 17.3333C0.706756 17.3333 0.333659 16.9602 0.333659 16.4999C0.333659 16.0397 0.706756 15.6666 1.16699 15.6666L12.8337 15.6666C13.2939 15.6666 13.667 16.0397 13.667 16.4999ZM6.3988 13.7438C6.55045 13.9018 6.76374 14.0001 7 14.0001C7.1177 14.0001 7.22971 13.9757 7.33123 13.9317C7.42498 13.8911 7.5128 13.8325 7.58942 13.7559L12.5894 8.75592C12.9149 8.43049 12.9149 7.90285 12.5894 7.57741C12.264 7.25197 11.7363 7.25197 11.4109 7.57741L7.83333 11.155L7.83333 1.50008C7.83333 1.03984 7.46024 0.666748 7 0.666747C6.53976 0.666747 6.16667 1.03984 6.16667 1.50008L6.16667 11.1547L2.58942 7.57741C2.26398 7.25197 1.73634 7.25197 1.41091 7.57741C1.08547 7.90285 1.08547 8.43048 1.41091 8.75592L6.3988 13.7438Z" fill="white"/>
</svg>
