<svg width="20" height="20" viewBox="0 0 20 20" fill="none" xmlns="http://www.w3.org/2000/svg">
<path fill-rule="evenodd" clip-rule="evenodd" d="M19.167 10.0001C19.167 10.4603 18.7939 10.8334 18.3337 10.8334L16.667 10.8334C16.2068 10.8334 15.8337 10.4603 15.8337 10.0001C15.8337 9.53984 16.2068 9.16675 16.667 9.16675L18.3337 9.16675C18.7939 9.16675 19.167 9.53984 19.167 10.0001ZM10.8335 13.3333C10.8335 12.8731 10.4604 12.5 10.0002 12.5C9.53993 12.5 9.16683 12.8731 9.16683 13.3333L9.16683 16.3215L8.08942 15.2441C7.76398 14.9186 7.23634 14.9186 6.91091 15.2441C6.58547 15.5695 6.58547 16.0972 6.91091 16.4226L9.41091 18.9226C9.49102 19.0027 9.58339 19.0631 9.68197 19.1038C9.77778 19.1434 9.88258 19.1656 9.99247 19.1666L9.16683 16.3215L10.0002 12.5L10.0002 19.1667C10.0145 19.1667 10.0288 19.1663 10.043 19.1656C10.1404 19.1606 10.2334 19.139 10.3191 19.1034C10.421 19.0612 10.5127 18.9993 10.5894 18.9226L10.5895 18.9225L13.0894 16.4226C13.4149 16.0972 13.4149 15.5695 13.0894 15.2441C12.764 14.9186 12.2363 14.9186 11.9109 15.2441L10.8335 16.3215L10.8335 13.3333ZM10.3191 0.896728C10.2216 0.856284 10.1147 0.833828 10.0027 0.833499C10.0018 0.833497 10.001 0.833496 10.0002 0.833496C9.99933 0.833496 9.9985 0.833497 9.99766 0.833499C9.786 0.83413 9.57453 0.9149 9.41268 1.07581C9.41209 1.0764 9.4115 1.07698 9.41091 1.07757M9.41063 1.07785L6.91091 3.57757C6.58547 3.90301 6.58547 4.43065 6.91091 4.75608C7.23634 5.08152 7.76398 5.08152 8.08942 4.75608L9.16683 3.67867L9.16683 6.66683C9.16683 7.12707 9.53992 7.50016 10.0002 7.50016C10.4604 7.50016 10.8335 7.12707 10.8335 6.66683L10.8335 3.67867L11.9109 4.75608C12.2363 5.08152 12.764 5.08152 13.0894 4.75608C13.4149 4.43065 13.4149 3.90301 13.0894 3.57757L10.5897 1.07785M10.3191 0.896728C10.4167 0.937095 10.5082 0.996788 10.5876 1.07581ZM13.3337 10.8334C13.7939 10.8334 14.167 10.4603 14.167 10.0001C14.167 9.53984 13.7939 9.16675 13.3337 9.16675L11.667 9.16675C11.2068 9.16675 10.8337 9.53984 10.8337 10.0001C10.8337 10.4603 11.2068 10.8334 11.667 10.8334L13.3337 10.8334ZM9.16699 10.0001C9.16699 10.4603 8.7939 10.8334 8.33366 10.8334L6.66699 10.8334C6.20675 10.8334 5.83366 10.4603 5.83366 10.0001C5.83366 9.53984 6.20675 9.16675 6.66699 9.16675L8.33366 9.16675C8.7939 9.16675 9.16699 9.53984 9.16699 10.0001ZM3.33366 10.8334C3.7939 10.8334 4.16699 10.4603 4.16699 10.0001C4.16699 9.53984 3.7939 9.16675 3.33366 9.16675L1.66699 9.16675C1.20675 9.16675 0.833658 9.53984 0.833658 10.0001C0.833658 10.4603 1.20675 10.8334 1.66699 10.8334L3.33366 10.8334Z" fill="white"/>
</svg>
