<svg width="18" height="22" viewBox="0 0 18 22" fill="none" xmlns="http://www.w3.org/2000/svg">
<path fill-rule="evenodd" clip-rule="evenodd" d="M4.05025 4.05025C5.36301 2.7375 7.14348 2 9 2C10.8565 2 12.637 2.7375 13.9497 4.05025C15.2625 5.36301 16 7.14348 16 9C16 11.1593 14.7833 13.4867 13.2023 15.564C11.674 17.572 9.9203 19.198 9 19.9966C8.07969 19.198 6.32602 17.572 4.79774 15.564C3.21668 13.4867 2 11.1593 2 9C2 7.14348 2.7375 5.36301 4.05025 4.05025ZM9 0C6.61305 0 4.32387 0.948212 2.63604 2.63604C0.948212 4.32387 0 6.61305 0 9C0 11.8337 1.55282 14.6028 3.20626 16.7753C4.88287 18.9781 6.79028 20.7312 7.74546 21.5559C7.7625 21.5706 7.78002 21.5847 7.798 21.5982C8.14455 21.8588 8.56641 21.9998 9 21.9998C9.43359 21.9998 9.85545 21.8588 10.202 21.5982C10.22 21.5847 10.2375 21.5706 10.2545 21.5559C11.2097 20.7312 13.1171 18.9781 14.7937 16.7753C16.4472 14.6028 18 11.8337 18 9C18 6.61305 17.0518 4.32387 15.364 2.63604C13.6761 0.948212 11.3869 0 9 0ZM7 9C7 7.89543 7.89543 7 9 7C10.1046 7 11 7.89543 11 9C11 10.1046 10.1046 11 9 11C7.89543 11 7 10.1046 7 9ZM9 5C6.79086 5 5 6.79086 5 9C5 11.2091 6.79086 13 9 13C11.2091 13 13 11.2091 13 9C13 6.79086 11.2091 5 9 5Z" fill="white"/>
</svg>
