<svg width="14" height="14" viewBox="0 0 14 14" fill="none" xmlns="http://www.w3.org/2000/svg">
<path fill-rule="evenodd" clip-rule="evenodd" d="M7 0C7.55228 0 8 0.447715 8 1V5.2679L11.6959 3.13403C12.1742 2.85788 12.7857 3.02174 13.0619 3.50003C13.338 3.97832 13.1742 4.58992 12.6959 4.86606L8.99983 7.00004L12.6959 9.13403C13.1742 9.41017 13.338 10.0218 13.0619 10.5001C12.7857 10.9783 12.1742 11.1422 11.6959 10.8661L8 8.73219V13C8 13.5523 7.55228 14 7 14C6.44772 14 6 13.5523 6 13V8.73205L2.30389 10.8661C1.8256 11.1422 1.21401 10.9783 0.937859 10.5001C0.66171 10.0218 0.825578 9.41017 1.30387 9.13403L4.99992 7.00004L1.30387 4.86606C0.825578 4.58992 0.66171 3.97832 0.937859 3.50003C1.21401 3.02174 1.8256 2.85788 2.30389 3.13403L6 5.26804V1C6 0.447715 6.44772 0 7 0Z" fill="#D61336"/>
</svg>
