<?xml version="1.0" encoding="utf-8"?><svg viewBox="0 0 208 41" xmlns="http://www.w3.org/2000/svg" xmlns:xlink="http://www.w3.org/1999/xlink"><style>:root>svg{display:none}:root>svg:target{display:block}</style><svg fill="none" viewBox="0 0 9 12" id="arrow-up" xmlns="http://www.w3.org/2000/svg"><path fill-rule="evenodd" clip-rule="evenodd" d="M.188 5.138a.684.684 0 010-.943l3.857-4a.627.627 0 01.91 0l3.857 4a.684.684 0 010 .943.627.627 0 01-.91 0l-2.76-2.862v9.057A.655.655 0 014.5 12a.655.655 0 01-.643-.667V2.276l-2.76 2.862a.627.627 0 01-.909 0z" fill="#fff"/></svg><svg fill="none" viewBox="0 0 22 20" id="bag" xmlns="http://www.w3.org/2000/svg"><path fill-rule="evenodd" clip-rule="evenodd" d="M9 0a3 3 0 00-3 3v1H3a3 3 0 00-3 3v10a3 3 0 003 3h16a3 3 0 003-3v-4.986V7a3 3 0 00-3-3h-3V3a3 3 0 00-3-3H9zm5 4V3a1 1 0 00-1-1H9a1 1 0 00-1 1v1h6zm6 7.452V7a1 1 0 00-1-1H3a1 1 0 00-1 1v4.452a17.15 17.15 0 0018 0zm0 2.305a19.15 19.15 0 01-18 0V17a1 1 0 001 1h16a1 1 0 001-1v-3.243zM11 10a1 1 0 100 2h.01a1 1 0 100-2H11z" fill="#D61336"/></svg><svg fill="none" viewBox="0 0 23 22" id="check" xmlns="http://www.w3.org/2000/svg"><path fill-rule="evenodd" clip-rule="evenodd" d="M10.56 2.374a3 3 0 013.968 1.015 1 1 0 001.061.437 3 3 0 013.585 3.585 1 1 0 00.438 1.062 3 3 0 010 5.055 1 1 0 00-.438 1.06 3 3 0 01-3.577 3.586 1 1 0 00-1.06.44 3 3 0 01-5.063 0 1 1 0 00-1.063-.44 3 3 0 01-3.585-3.577 1 1 0 00-.441-1.062 3 3 0 010-5.07 1 1 0 00.441-1.062 3 3 0 013.585-3.577 1 1 0 001.062-.437 3 3 0 011.086-1.015zM12 .004a5 5 0 00-3.814 1.768 5 5 0 00-5.413 5.4 5 5 0 000 7.656 5 5 0 005.412 5.4 5 5 0 007.642 0 5.002 5.002 0 005.402-5.414 4.998 4.998 0 000-7.628 4.998 4.998 0 00-5.415-5.414A5 5 0 0012 .005zm3.707 9.703a1 1 0 00-1.414-1.414L11 11.586l-1.293-1.293a1 1 0 10-1.414 1.414l2 2a1 1 0 001.414 0l4-4z" fill="#D61336"/></svg><svg fill="none" viewBox="0 0 10 10" id="close" xmlns="http://www.w3.org/2000/svg"><path fill-rule="evenodd" clip-rule="evenodd" d="M9.494.514c.31.31.31.813 0 1.123l-3.37 3.37 3.37 3.371a.794.794 0 01-1.123 1.124L5 6.132l-3.37 3.37A.794.794 0 01.505 8.378l3.37-3.37-3.37-3.37A.794.794 0 011.629.513L5 3.884 8.37.514a.794.794 0 011.124 0z" fill="#202B39"/></svg><svg fill="none" viewBox="0 0 208 41" id="cmwp-logo" xmlns="http://www.w3.org/2000/svg"><path d="M5.093 29.301c-1.608-.858-2.841-2.092-3.753-3.595C.43 24.15 0 22.432 0 20.5c0-1.932.482-3.649 1.394-5.205.911-1.556 2.144-2.737 3.752-3.596 1.609-.858 3.378-1.288 5.361-1.288 1.608 0 3.056.269 4.396.859 1.34.537 2.466 1.395 3.377 2.415l-2.358 2.2c-1.394-1.556-3.163-2.307-5.254-2.307-1.34 0-2.573.268-3.592.858-1.072.59-1.876 1.396-2.52 2.469a7.255 7.255 0 00-.91 3.542c0 1.341.321 2.522.91 3.542.59 1.073 1.448 1.878 2.52 2.468 1.072.59 2.252.859 3.592.859 2.09 0 3.806-.752 5.254-2.308l2.358 2.254a8.505 8.505 0 01-3.377 2.415c-1.34.537-2.788.859-4.396.859-1.983.053-3.806-.376-5.414-1.235zM66.422 11.538c1.287.537 2.252 1.342 2.895 2.415.697 1.073 1.019 2.308 1.019 3.756 0 1.396-.322 2.684-1.019 3.703-.697 1.074-1.662 1.879-2.895 2.415-1.286.537-2.734.859-4.45.859h-4.449v5.688h-3.645V10.68h8.095c1.715 0 3.216.322 4.45.859zm-.965 9.016c.804-.698 1.233-1.61 1.233-2.898 0-1.234-.429-2.2-1.233-2.898s-2.037-1.02-3.591-1.02H57.63v7.782h4.235c1.555.053 2.735-.269 3.592-.966zM52.108 21.412L45.836 41h-7.077l-3.163-10.465L32.273 41h-7.13L18.87 21.412h6.808l3.43 11.162 3.593-11.162h6.057l3.431 11.323 3.592-11.323h6.326zM45.836 19.641L42.244 8.318l-3.431 11.323h-6.111L29.11 8.48l-3.431 11.162H18.87L25.143 0h7.076l3.324 10.465L38.759 0h7.077l6.272 19.641h-6.272zM82.885 19.855a4.942 4.942 0 01-1.769-1.717 4.845 4.845 0 01-.643-2.469c0-.912.214-1.77.643-2.468.429-.752 1.019-1.288 1.823-1.718.75-.429 1.608-.644 2.573-.644.75 0 1.394.108 2.037.376s1.126.59 1.555 1.127l-.858.859c-.697-.752-1.608-1.127-2.68-1.127-.698 0-1.34.16-1.93.483a3.445 3.445 0 00-1.34 1.288c-.322.536-.483 1.18-.483 1.878 0 .697.16 1.288.482 1.878.322.537.75.966 1.34 1.288.59.322 1.18.483 1.93.483 1.073 0 1.93-.376 2.68-1.127l.859.859a4.634 4.634 0 01-1.555 1.127c-.643.268-1.287.375-2.037.375-1.019-.107-1.877-.322-2.627-.75zM92.483 19.855c-.75-.43-1.394-1.02-1.823-1.717-.429-.698-.643-1.557-.643-2.469 0-.912.214-1.717.643-2.468.429-.752 1.019-1.342 1.823-1.718.75-.429 1.608-.644 2.573-.644.965 0 1.823.215 2.573.644.75.43 1.34 1.02 1.823 1.718.428.75.643 1.556.643 2.468 0 .912-.215 1.771-.643 2.469-.43.751-1.019 1.288-1.823 1.717-.75.43-1.608.644-2.573.644-.965 0-1.823-.215-2.573-.644zm4.45-1.02a3.7 3.7 0 001.286-1.288c.321-.536.482-1.18.482-1.878a3.77 3.77 0 00-.482-1.878c-.322-.59-.75-.966-1.287-1.288-.536-.322-1.18-.483-1.876-.483-.697 0-1.34.161-1.876.483a3.445 3.445 0 00-1.34 1.288c-.322.537-.483 1.18-.483 1.878s.16 1.288.482 1.878c.322.537.75.966 1.34 1.288.537.322 1.18.483 1.877.483.697-.053 1.286-.16 1.876-.483zM110.921 20.392v-6.923l-3.431 5.742h-.643l-3.431-5.688v6.869h-1.287v-9.499h1.126l3.967 6.654 3.914-6.654h1.125v9.445h-1.34v.054zM123.787 20.392v-6.923l-3.431 5.742h-.643l-3.378-5.688v6.869h-1.286v-9.499h1.126l3.967 6.654 3.913-6.654h1.126v9.445h-1.394v.054zM129.633 19.855c-.75-.43-1.393-1.02-1.822-1.717-.429-.698-.644-1.557-.644-2.469 0-.912.215-1.717.644-2.468.429-.752 1.018-1.342 1.822-1.718.751-.429 1.609-.644 2.574-.644.965 0 1.822.215 2.573.644.75.43 1.34 1.02 1.823 1.718.428.75.643 1.556.643 2.468 0 .912-.215 1.771-.643 2.469-.429.751-1.019 1.288-1.823 1.717-.751.43-1.608.644-2.573.644-.965 0-1.823-.215-2.574-.644zm4.45-1.02a3.703 3.703 0 001.287-1.288c.321-.536.482-1.18.482-1.878 0-.697-.161-1.288-.482-1.878a3.703 3.703 0 00-1.287-1.288c-.536-.322-1.179-.483-1.876-.483-.697 0-1.341.161-1.877.483a3.452 3.452 0 00-1.34 1.288c-.321.537-.482 1.18-.482 1.878s.161 1.288.482 1.878c.322.537.751.966 1.34 1.288.536.322 1.18.483 1.877.483.697-.053 1.34-.16 1.876-.483zM147.429 10.893v9.499h-1.126l-5.683-7.084v7.084h-1.34v-9.499h1.126l5.683 7.084v-7.084h1.34zM163.511 10.893l-3.163 9.499h-1.394l-2.573-7.567-2.573 7.567h-1.447l-3.163-9.445h1.394l2.573 7.674 2.68-7.674h1.233l2.627 7.727 2.627-7.727h1.179v-.054zM172.034 19.211v1.18h-6.862v-9.498h6.701v1.18h-5.307v2.952h4.717v1.127h-4.717v3.06h5.468zM180.24 18.03h-5.039l-1.019 2.362h-1.393l4.288-9.445h1.34l4.289 9.445h-1.394l-1.072-2.361zm-.429-1.073l-2.037-4.615-2.037 4.615h4.074zM184.148 10.893h1.34v8.318h5.147v1.18h-6.487v-9.498zM193.154 12.074h-3.27v-1.18h7.827v1.18h-3.217v8.318h-1.34v-8.318zM207.362 10.893v9.499h-1.34v-4.24h-5.414v4.24h-1.34v-9.499h1.34v4.079h5.414v-4.079h1.34zM85.35 23.719c.483.215.805.483 1.073.912.267.376.375.859.375 1.342 0 .537-.108.966-.376 1.342-.267.375-.59.697-1.072.912a3.914 3.914 0 01-1.608.322h-1.447v1.932h-1.662v-7.03h3.056c.643 0 1.179.053 1.661.268zm-.643 3.166c.268-.214.375-.536.375-.912s-.107-.698-.375-.912c-.268-.215-.643-.322-1.126-.322h-1.34v2.468h1.34c.536 0 .912-.107 1.126-.322zM97.413 28.978h-3.27l-.643 1.503h-1.662L95 23.397h1.608l3.163 7.084h-1.716l-.643-1.503zm-.482-1.234l-1.126-2.737-1.126 2.737h2.252zM110.228 30.535l-1.341-1.986h-1.554v1.986h-1.662V23.45h3.056c.643 0 1.179.107 1.608.322.482.214.804.483 1.072.912.268.376.375.859.375 1.342 0 .536-.107.966-.375 1.341-.268.376-.59.698-1.072.859l1.608 2.254h-1.715v.053zm-.429-5.474c-.268-.215-.644-.322-1.126-.322h-1.34v2.468h1.34c.482 0 .858-.107 1.126-.322.268-.214.375-.536.375-.912s-.107-.698-.375-.912zM119.661 24.738h-2.251v-1.341h6.165v1.341h-2.252v5.743h-1.662v-5.743zM136.169 23.45v7.085h-1.34l-3.538-4.294v4.294h-1.608V23.45h1.34l3.538 4.293V23.45h1.608zM148.503 29.193v1.341h-5.468v-7.083h5.36v1.341h-3.698v1.503h3.27v1.288h-3.27v1.664h3.806v-.054zM159.491 30.535l-1.34-1.986H156.596v1.986h-1.662V23.45h3.056c.643 0 1.179.107 1.608.322.482.214.804.483 1.072.912.268.376.375.859.375 1.342 0 .536-.107.966-.375 1.341-.268.376-.59.698-1.072.859l1.608 2.254h-1.715v.053zm-.429-5.474c-.268-.215-.643-.322-1.126-.322h-1.34v2.468h1.34c.483 0 .858-.107 1.126-.322.268-.214.375-.536.375-.912a.97.97 0 00-.375-.912zM168.286 30.427a4.828 4.828 0 01-1.287-.59l.536-1.235c.322.215.643.376 1.072.537.429.16.858.215 1.233.215.483 0 .804-.054 1.019-.215.214-.161.321-.322.321-.537a.487.487 0 00-.214-.429c-.107-.107-.322-.215-.482-.268-.215-.054-.483-.161-.858-.215-.536-.107-.965-.268-1.34-.376a2.045 2.045 0 01-.912-.644c-.268-.268-.375-.644-.375-1.127 0-.429.107-.805.322-1.127.214-.322.536-.59 1.018-.805.429-.214 1.019-.268 1.662-.268.429 0 .911.054 1.34.161.429.107.804.268 1.126.483l-.482 1.234a3.81 3.81 0 00-1.984-.536c-.482 0-.804.053-1.018.214-.215.161-.322.322-.322.59 0 .27.107.43.375.537.268.108.643.215 1.18.376.536.107.964.268 1.34.376.321.107.643.322.911.59.268.268.375.644.375 1.127 0 .43-.107.751-.321 1.127-.215.322-.59.59-1.019.805-.429.215-1.018.268-1.662.268-.482-.053-1.018-.107-1.554-.268zM185.759 23.45v7.085h-1.662v-2.898h-3.216v2.898h-1.662V23.45h1.662v2.79h3.216v-2.79h1.662zM192.618 23.45h1.662v7.085h-1.662V23.45zM205.806 23.719c.483.215.804.483 1.073.912.268.376.375.859.375 1.342 0 .537-.107.966-.375 1.342-.269.375-.59.697-1.073.912a3.91 3.91 0 01-1.608.322h-1.447v1.932h-1.662v-7.03h3.056c.643 0 1.179.053 1.661.268zm-.589 3.166c.268-.214.375-.536.375-.912s-.107-.698-.375-.912c-.268-.215-.644-.322-1.126-.322h-1.34v2.468h1.34c.482 0 .858-.107 1.126-.322z"/></svg><svg fill="none" viewBox="0 0 18 18" id="concrete" xmlns="http://www.w3.org/2000/svg"><path fill-rule="evenodd" clip-rule="evenodd" d="M3.167 2.333a.833.833 0 00-.834.834V11.5c0 .46.373.833.833.833h11.667c.46 0 .833-.373.833-.833V3.167a.833.833 0 00-.833-.834H3.167zm-2.5.834a2.5 2.5 0 012.5-2.5h11.666a2.5 2.5 0 012.5 2.5V11.5a2.5 2.5 0 01-2.5 2.5H3.167a2.5 2.5 0 01-2.5-2.5V3.167zM1.5 16.5c0-.46.373-.833.833-.833h.834a.833.833 0 010 1.666h-.834A.833.833 0 011.5 16.5zm5-.833a.833.833 0 000 1.666h.833a.833.833 0 100-1.666H6.5zm3.333.833c0-.46.373-.833.833-.833h.834a.833.833 0 010 1.666h-.834a.833.833 0 01-.833-.833zm5-.833a.833.833 0 000 1.666h.834a.833.833 0 000-1.666h-.834z" fill="#fff"/></svg><svg fill="none" viewBox="0 0 20 18" id="dock" xmlns="http://www.w3.org/2000/svg"><path fill-rule="evenodd" clip-rule="evenodd" d="M.833 2.333c0-.92.747-1.666 1.667-1.666h15c.92 0 1.667.746 1.667 1.666v2.5c0 .92-.746 1.667-1.667 1.667v8.333a2.5 2.5 0 01-2.5 2.5h-1.667a.833.833 0 010-1.666H15a.833.833 0 00.833-.834V6.5H4.167v8.333a.833.833 0 00.833.834h1.667a.833.833 0 010 1.666H5a2.5 2.5 0 01-2.5-2.5V6.5C1.58 6.5.833 5.754.833 4.833v-2.5zm15.85 2.5H2.5v-2.5h15v2.5h-.817zM10.32 8.23a.83.83 0 01.27.18l2.5 2.5a.833.833 0 01-1.178 1.18l-1.078-1.078V16.5a.833.833 0 01-1.667 0v-5.488L8.09 12.089a.833.833 0 11-1.178-1.178l2.5-2.5a.83.83 0 01.586-.244h.005a.83.83 0 01.317.063z" fill="#fff"/></svg><svg fill="none" viewBox="0 0 13 20" id="extinguisher" xmlns="http://www.w3.org/2000/svg"><path fill-rule="evenodd" clip-rule="evenodd" d="M7 .833a1.667 1.667 0 00-1.463.868A5.833 5.833 0 00.333 7.5v9.166a.833.833 0 101.667 0v-5h1.667v5a2.5 2.5 0 002.5 2.5H9.5a2.5 2.5 0 002.5-2.5V8.333A4.166 4.166 0 0010.333 5V3.333H12a.833.833 0 100-1.666h-1.89A1.666 1.666 0 008.666.833H7zm1.666 3.418V2.5H7v1.75a4.166 4.166 0 011.666 0zM5.333 5V3.417A4.167 4.167 0 002 7.5V10h1.667V8.333A4.167 4.167 0 015.332 5zm5 9.166V8.333a2.5 2.5 0 10-5 0v5.834h5zm-5 1.666h5v.834a.833.833 0 01-.833.833H6.167a.833.833 0 01-.834-.833v-.834z" fill="#fff"/></svg><svg fill="none" viewBox="0 0 14 18" id="fire" xmlns="http://www.w3.org/2000/svg"><path fill-rule="evenodd" clip-rule="evenodd" d="M7.179.974a.556.556 0 01.366.417c.39 1.95 1.567 3.837 3.136 5.092 1.766 1.413 2.708 3.144 2.708 5.017a6.388 6.388 0 11-12.778 0c0-1.083.402-2.158.956-2.848A.556.556 0 012.556 9 1.528 1.528 0 105.61 9c0-.791-.209-1.182-.525-1.775-.077-.144-.161-.3-.25-.477-.51-1.02-.573-2.022-.222-2.998.342-.95 1.06-1.828 2.02-2.668A.556.556 0 017.18.974zm-1.52 3.153c-.241.671-.212 1.358.171 2.124.067.133.136.262.207.392.337.623.685 1.268.685 2.357a2.639 2.639 0 01-4.842 1.452c-.098.33-.158.688-.158 1.048a5.277 5.277 0 1010.556 0c0-1.46-.725-2.896-2.292-4.15A10.175 10.175 0 016.7 2.556c-.515.545-.859 1.066-1.04 1.57z" fill="#fff"/></svg><svg fill="none" viewBox="0 0 14 18" id="floor" xmlns="http://www.w3.org/2000/svg"><path fill-rule="evenodd" clip-rule="evenodd" d="M13.667 16.5c0 .46-.373.833-.833.833H1.167a.833.833 0 010-1.666h11.667c.46 0 .833.373.833.833zm-7.268-2.756a.83.83 0 001.19.012l5-5a.833.833 0 10-1.178-1.179l-3.578 3.578V1.5a.833.833 0 10-1.666 0v9.655L2.589 7.577a.833.833 0 10-1.178 1.179l4.988 4.988z" fill="#fff"/></svg><svg fill="none" viewBox="0 0 20 20" id="height" xmlns="http://www.w3.org/2000/svg"><path fill-rule="evenodd" clip-rule="evenodd" d="M19.167 10c0 .46-.373.833-.833.833h-1.667a.833.833 0 010-1.666h1.667c.46 0 .833.373.833.833zm-8.334 3.333a.833.833 0 00-1.666 0v2.989l-1.078-1.078a.833.833 0 10-1.178 1.179l2.5 2.5a.832.832 0 00.581.244l-.825-2.846L10 12.5v6.667a.87.87 0 00.32-.064.834.834 0 00.27-.18l2.5-2.5a.833.833 0 10-1.18-1.179l-1.076 1.078v-2.989zM10.32.897a.83.83 0 00-.906.179l-.002.002m0 0l-2.5 2.5a.833.833 0 101.178 1.178L9.167 3.68v2.988a.833.833 0 001.667 0V3.679l1.077 1.077a.833.833 0 101.178-1.178l-2.5-2.5m-.27-.181c.098.04.19.1.269.179zm3.015 9.936a.833.833 0 000-1.666h-1.667a.833.833 0 000 1.666h1.667zM9.167 10c0 .46-.373.833-.833.833H6.667a.833.833 0 110-1.666h1.667c.46 0 .833.373.833.833zm-5.833.833a.833.833 0 100-1.666H1.667a.833.833 0 100 1.666h1.667z" fill="#fff"/></svg><svg fill="none" viewBox="0 0 18 22" id="location" xmlns="http://www.w3.org/2000/svg"><path fill-rule="evenodd" clip-rule="evenodd" d="M4.05 4.05A7 7 0 0116 9c0 2.16-1.217 4.487-2.798 6.564C11.674 17.572 9.92 19.198 9 19.997c-.92-.799-2.674-2.425-4.202-4.433C3.217 13.487 2 11.159 2 9a7 7 0 012.05-4.95zM9 0a9 9 0 00-9 9c0 2.834 1.553 5.603 3.206 7.775 1.677 2.203 3.584 3.956 4.54 4.78a2 2 0 002.509 0c.955-.824 2.862-2.577 4.539-4.78C16.447 14.603 18 11.834 18 9a9 9 0 00-9-9zM7 9a2 2 0 114 0 2 2 0 01-4 0zm2-4a4 4 0 100 8 4 4 0 000-8z" fill="#fff"/></svg><svg fill="none" viewBox="0 0 10 8" id="slider-arrow" xmlns="http://www.w3.org/2000/svg"><path fill-rule="evenodd" clip-rule="evenodd" d="M5.646 7.354a.5.5 0 010-.708L7.793 4.5H1a.5.5 0 010-1h6.793L5.646 1.354a.5.5 0 11.708-.708l3 3a.5.5 0 010 .708l-3 3a.5.5 0 01-.708 0z" fill="#161719"/></svg><svg fill="none" viewBox="0 0 14 14" id="star" xmlns="http://www.w3.org/2000/svg"><path fill-rule="evenodd" clip-rule="evenodd" d="M7 0a1 1 0 011 1v4.268l3.696-2.134a1 1 0 111 1.732L9 7l3.696 2.134a1 1 0 01-1 1.732L8 8.732V13a1 1 0 11-2 0V8.732l-3.696 2.134a1 1 0 01-1-1.732L5 7 1.304 4.866a1 1 0 111-1.732L6 5.268V1a1 1 0 011-1z" fill="#D61336"/></svg></svg>